HIERARCHY
ROOT Hips
{
  OFFSET 1.44925e-005 102.336 -0.101585
  CHANNELS 6 Xposition Yposition Zposition Zrotation Xrotation Yrotation
  JOINT LeftUpLeg
  {
    OFFSET 8.9458 -8.66707 0.101652
    CHANNELS 3 Zrotation Xrotation Yrotation
    JOINT LeftLeg
    {
      OFFSET 0 -44.4227 1.3727
      CHANNELS 3 Zrotation Xrotation Yrotation
      JOINT LeftFoot
      {
        OFFSET -0.253549 -42.0924 -1.46059
        CHANNELS 3 Zrotation Xrotation Yrotation
        JOINT LeftToes
        {
          OFFSET -0.04 -4.41509 8.4991
          CHANNELS 3 Zrotation Xrotation Yrotation
          End Site
          {
            OFFSET 0.08 -0.047448 9.77979
          }
        }
      }
    }
  }
  JOINT Spine
  {
    OFFSET 0 11.8905 0
    CHANNELS 3 Zrotation Xrotation Yrotation
    JOINT Spine1
    {
      OFFSET 0 25.6574 0.127663
      CHANNELS 3 Zrotation Xrotation Yrotation
      JOINT RightShoulder
      {
        OFFSET -8.99 -0.362252 -0.22
        CHANNELS 3 Zrotation Xrotation Yrotation
        JOINT RightArm
        {
          OFFSET -10.2827 -0.00338 0.322123
          CHANNELS 3 Zrotation Xrotation Yrotation
          JOINT RightForeArm
          {
            OFFSET -26.364 0.099144 -1.42434
            CHANNELS 3 Zrotation Xrotation Yrotation
            JOINT RightHand
            {
              OFFSET -22.0324 0.085362 1.02216
              CHANNELS 3 Zrotation Xrotation Yrotation
              End Site
              {
                OFFSET -13.3284 -0.6 1.50291
              }
            }
          }
        }
      }
      JOINT LeftShoulder1
      {
        OFFSET 8.99 -0.362252 -0.22
        CHANNELS 3 Zrotation Xrotation Yrotation
        JOINT LeftArm
        {
          OFFSET 10.2827 -0.00337999 0.322123
          CHANNELS 3 Zrotation Xrotation Yrotation
          JOINT LeftForeArm
          {
            OFFSET 26.2597 0.099144 -1.42434
            CHANNELS 3 Zrotation Xrotation Yrotation
            JOINT LeftHand
            {
              OFFSET 22.0902 0.085362 1.02216
              CHANNELS 3 Zrotation Xrotation Yrotation
              End Site
              {
                OFFSET 13.419 -0.6 1.50291
              }
            }
          }
        }
      }
      JOINT Head
      {
        OFFSET 0 8.73416 0.011341
        CHANNELS 3 Zrotation Xrotation Yrotation
        End Site
        {
          OFFSET -0.29 12.7742 2.51395
        }
      }
    }
  }
  JOINT RightUpLeg
  {
    OFFSET -8.9458 -8.66707 0.101652
    CHANNELS 3 Zrotation Xrotation Yrotation
    JOINT RightLeg
    {
      OFFSET 0 -44.4227 1.3727
      CHANNELS 3 Zrotation Xrotation Yrotation
      JOINT RightFoot
      {
        OFFSET 0.253549 -42.0924 -1.46059
        CHANNELS 3 Zrotation Xrotation Yrotation
        JOINT RightToes
        {
          OFFSET 0.04 -4.41509 8.4991
          CHANNELS 3 Zrotation Xrotation Yrotation
          End Site
          {
            OFFSET -0.08 -0.137448 9.77979
          }
        }
      }
    }
  }
}
MOTION
Frames:	19
Frame Time:	0.0333333
34.3751 101.588 3.97333 -4.04535 -1.14994 -91.7477 -1.67554 -0.692904 1.03068 1.04895 14.6081 10.1259 -3.5134 -14.0688 -0.12786 -1.33649e-009 8.75224e-006 -1.46515e-008 -1.83974 10.131 -0.368322 -0.938955 -4.45223 -0.396408 36.4034 1.80194 0.221713 40.3131 -22.137 4.25416 6.95566 37.1728 9.34937 -6.82648 9.61318 0.0156335 -44.1995 3.54016 -3.45913 -24.8548 -9.95441 5.10264 -2.2507 32.0078 -18.0671 5.82328 9.61819 -0.917488 0.983652 -3.9544 -1.75237 -4.95156 -1.23501 -2.35794 -2.7533 16.5071 -7.578 8.64029 -15.0485 0.347549 0.0462048 0.000530889 0.662642 
34.3088 101.64 3.8304 -3.92877 -1.14394 -91.7328 -1.60769 -0.624787 0.967252 1.1009 14.2887 10.1492 -3.56448 -13.8679 -0.127909 -1.33649e-009 8.75224e-006 -1.46515e-008 -1.46836 9.93424 -0.289822 -1.22047 -4.54568 -0.235808 36.3576 1.80194 0.221992 40.3735 -21.2499 3.98114 6.8751 36.6536 9.72295 -6.6526 9.62454 -0.0509235 -44.382 3.56968 -3.48953 -24.4644 -10.8265 5.07824 -2.38605 32.7149 -17.6949 5.82328 9.61819 -0.917488 0.732631 -3.82569 -1.99836 -4.92899 -1.04619 -2.93562 -2.74525 15.9511 -7.00886 8.71349 -14.839 0.337331 0.0462048 0.000530889 0.662642 
34.1907 101.722 3.53319 -3.74809 -0.979272 -91.7985 -1.31448 -0.570155 0.937244 1.2409 13.9558 10.1784 -3.72267 -13.6718 -0.131062 -1.33649e-009 8.75224e-006 -1.46515e-008 -0.604992 9.51531 -0.155142 -1.81043 -4.53001 0.0632726 36.2985 1.80194 0.226395 40.5786 -20.3174 3.92246 6.97647 36.7336 9.7115 -6.50199 9.63607 -0.14727 -44.5647 3.60216 -3.52544 -24.0636 -12.2317 5.14213 -2.55115 33.4486 -17.2494 5.82328 9.61819 -0.917488 0.405201 -3.76239 -2.26461 -4.77386 -0.739325 -3.8554 -2.50668 15.0546 -6.07287 8.68086 -14.4984 0.31104 0.0462048 0.000530889 0.662642 
34.0891 101.779 3.14399 -3.66516 -0.698283 -91.8745 -0.869822 -0.564955 0.949239 1.44575 13.9485 10.2068 -3.91544 -13.6822 -0.141657 -1.33649e-009 8.75224e-006 -1.46515e-008 0.128165 9.16307 -0.0522143 -2.14479 -4.34832 0.27993 36.2435 1.80194 0.240519 40.8642 -20.196 4.35564 7.26079 37.863 9.09914 -6.42085 9.63953 -0.14275 -44.5692 3.60219 -3.5248 -24.1435 -12.694 5.37675 -2.52145 33.1429 -17.3145 5.82328 9.61819 -0.917488 0.277031 -4.00643 -2.26648 -4.42681 -0.41999 -4.41011 -2.14714 14.3467 -5.56099 8.29609 -14.2387 0.269894 0.0462048 0.000530889 0.662642 
34.0408 101.793 2.68952 -3.72059 -0.500905 -91.7968 -0.469248 -0.539592 0.902669 1.65404 14.0997 10.1437 -4.05295 -13.7073 -0.149749 -1.33649e-009 8.75224e-006 -1.46515e-008 0.251222 9.13575 -0.0422949 -1.88569 -4.22994 0.279483 36.223 1.80194 0.249819 41.0971 -20.4564 4.9262 7.40821 38.7401 8.67456 -6.38825 9.63483 -0.0101201 -44.4431 3.57592 -3.49257 -24.6589 -11.5087 5.69712 -2.27807 31.9685 -17.9418 5.82328 9.61819 -0.917488 0.34314 -4.51867 -2.02042 -3.98203 -0.15096 -4.5055 -1.94715 14.0398 -5.65966 7.67967 -14.1587 0.228641 0.0462048 0.000530889 0.662642 
34.0345 101.772 2.17841 -3.81447 -0.454768 -91.5024 -0.176901 -0.521342 0.746277 1.84543 14.2251 9.90597 -4.2429 -13.6398 -0.15781 -1.33649e-009 8.75224e-006 -1.46515e-008 -0.0488711 9.35973 -0.124348 -1.27533 -4.28857 0.110503 36.2712 1.80194 0.242511 41.1782 -20.3791 5.24721 7.22962 38.2263 9.03614 -6.47376 9.6237 0.141236 -44.367 3.55805 -3.46905 -25.1754 -9.50644 5.93664 -1.9764 30.994 -18.6477 5.82328 9.61819 -0.917488 0.436585 -5.07516 -1.70179 -3.56591 -0.0310525 -4.40205 -1.90427 14.1366 -6.09734 7.14765 -14.2616 0.203783 0.0462048 0.000530889 0.662642 
34.0396 101.737 1.62478 -3.84615 -0.447362 -91.0857 0.101811 -0.601648 0.528296 2.03933 14.3663 9.6435 -4.57864 -13.6542 -0.176236 -1.33649e-009 8.75224e-006 -1.46515e-008 -0.296029 9.55543 -0.252642 -0.736058 -4.3655 -0.0954494 36.36 1.80194 0.226139 41.1439 -19.8211 5.35883 6.94692 36.751 9.82395 -6.69202 9.61005 0.207537 -44.4519 3.56709 -3.47398 -25.3597 -8.15018 5.98702 -1.84339 30.8762 -18.9005 5.82328 9.61819 -0.917488 0.467954 -5.52483 -1.45536 -3.17188 -0.0826848 -4.26006 -1.85251 14.4644 -6.64531 6.777 -14.4594 0.192711 0.0462048 0.000530889 0.662642 
34.0432 101.706 1.05393 -3.8263 -0.431706 -90.6799 0.405321 -0.764382 0.321342 2.22608 14.5599 9.54873 -4.88846 -13.7566 -0.196531 -1.33649e-009 8.75224e-006 -1.46515e-008 -0.294797 9.65683 -0.379542 -0.473161 -4.38166 -0.251368 36.4089 1.80194 0.21693 41.1255 -19.1588 5.45533 6.76395 35.5491 10.4293 -6.88986 9.60181 0.183211 -44.5894 3.5838 -3.48597 -25.298 -8.1989 5.88638 -2.01945 31.4442 -18.5555 5.82328 9.61819 -0.917488 0.475973 -5.85188 -1.3412 -2.78155 -0.213752 -4.12118 -1.73469 14.8254 -7.21372 6.41009 -14.6745 0.181417 0.0462048 0.000530889 0.662642 
34.0483 101.685 0.492918 -3.80282 -0.498391 -90.3332 0.612607 -0.865388 0.123134 2.39575 14.6072 9.47863 -5.09986 -13.6404 -0.203214 -1.33649e-009 8.75224e-006 -1.46515e-008 -0.115494 9.83381 -0.492076 -0.522273 -4.51192 -0.341114 36.3574 1.80194 0.220614 41.1991 -18.6082 5.50662 6.65794 35.053 10.7505 -6.92052 9.60174 0.135495 -44.6159 3.58279 -3.48002 -25.2334 -9.22878 5.7784 -2.36273 32.2248 -17.9283 5.82328 9.61819 -0.917488 0.483925 -6.04668 -1.34835 -2.55326 -0.291981 -4.1638 -1.53166 15.0535 -7.60175 6.01585 -14.8783 0.166329 0.0462048 0.000530889 0.662642 
34.0481 101.675 -0.028124 -3.73587 -0.719751 -89.9418 0.609831 -0.925107 -0.260435 2.59452 14.5059 9.30909 -5.65829 -13.4782 -0.225695 -1.33649e-009 8.75224e-006 -1.46515e-008 0.158485 10.0782 -0.629056 -0.799548 -4.82368 -0.415096 36.2218 1.80194 0.23018 41.292 -18.0871 5.43364 6.6073 34.915 10.915 -6.84291 9.59991 0.157382 -44.5893 3.57376 -3.46642 -25.1896 -10.1928 5.76224 -2.58535 32.8127 -17.4858 5.82328 9.61819 -0.917488 0.463065 -6.07361 -1.39672 -2.65212 -0.295412 -4.58644 -1.17655 15.0784 -7.62387 5.73089 -15.073 0.157268 0.0462048 0.000530889 0.662642 
34.0376 101.665 -0.478691 -3.53808 -1.01557 -89.3804 0.460774 -1.257 -1.18205 2.82501 14.8108 9.59254 -6.97434 -14.1426 -0.333435 -1.33649e-009 8.75224e-006 -1.46515e-008 0.448584 10.1391 -0.821729 -1.05932 -5.09987 -0.539889 36.0903 1.80194 0.235976 41.2285 -17.678 5.34296 6.6901 35.0548 10.8356 -6.80575 9.59874 0.251365 -44.6893 3.58336 -3.47014 -25.0762 -10.5036 5.79811 -2.60418 33.0117 -17.3988 5.82328 9.61819 -0.917488 0.445933 -5.96182 -1.433 -2.94868 -0.369702 -5.20326 -0.727062 15.052 -7.53259 5.57669 -15.283 0.156693 0.0462048 0.000530889 0.662642 
34.0255 101.622 -0.840317 -3.26511 -1.23106 -88.7253 0.354584 -2.02447 -2.81586 2.90365 15.973 11.0724 -8.55956 -15.8596 -0.545153 -1.33649e-009 8.75224e-006 -1.46515e-008 0.692133 10.0009 -1.02005 -1.09778 -5.21163 -0.695122 36.0294 1.80194 0.236165 40.929 -17.706 5.34042 6.95213 35.6541 10.3719 -6.81367 9.60113 0.271567 -44.8489 3.60433 -3.48697 -25.0306 -10.5061 5.76359 -2.58244 32.9753 -17.4329 5.82328 9.61819 -0.917488 0.545754 -5.82718 -1.54342 -3.10632 -0.651365 -5.58518 -0.425643 15.3082 -7.79073 5.43464 -15.5594 0.159825 0.0462048 0.000530889 0.662642 
34.0236 101.526 -1.10538 -3.15984 -1.25564 -88.1573 0.428399 -2.81894 -4.67692 2.67877 17.4938 13.3221 -9.36158 -17.3541 -0.719759 -1.33649e-009 8.75224e-006 -1.46515e-008 0.942978 10.0021 -1.12539 -0.968194 -5.27162 -0.772887 35.9818 1.80194 0.239359 40.5196 -18.4155 5.3717 7.3229 36.6314 9.59378 -6.7636 9.61108 0.116607 -44.8249 3.60427 -3.49042 -25.3175 -10.794 5.59443 -2.61126 33.0742 -17.3594 5.82328 9.61819 -0.917488 0.816369 -5.77935 -1.83442 -2.9486 -1.00226 -5.5968 -0.383851 15.9821 -8.41243 5.2757 -15.9121 0.164722 0.0462048 0.000530889 0.662642 
34.0084 101.408 -1.26654 -3.39351 -1.08006 -87.8553 0.670348 -3.06122 -5.78943 2.44175 18.4353 14.7225 -9.00614 -17.3265 -0.688986 -1.33649e-009 8.75224e-006 -1.46515e-008 1.24172 10.2572 -1.0945 -0.788518 -5.25651 -0.719974 35.8597 1.80194 0.252655 40.0952 -19.6708 5.41031 7.70043 37.7479 8.68154 -6.69288 9.62407 -0.0787513 -44.6694 3.58509 -3.47649 -25.9014 -11.2087 5.38862 -2.53097 33.3295 -17.3548 5.82328 9.61819 -0.917488 1.16794 -5.80408 -2.21277 -2.57642 -1.06868 -5.4345 -0.436996 16.7203 -8.98199 5.17738 -16.2334 0.16933 0.0462048 0.000530889 0.662642 
33.9277 101.318 -1.31905 -3.81752 -0.77723 -87.8286 0.969691 -2.72387 -5.92073 2.45724 18.562 14.6607 -8.15643 -16.165 -0.536082 -1.33649e-009 8.75224e-006 -1.46515e-008 1.44915 10.3775 -0.985567 -0.490739 -4.94848 -0.625003 35.7381 1.80194 0.26769 39.5138 -21.0031 5.54604 8.06266 38.8271 7.7536 -6.78329 9.62253 -0.131662 -44.6924 3.58314 -3.46925 -26.4487 -10.9828 5.35457 -2.20775 33.2528 -17.7315 5.82328 9.61819 -0.917488 1.46766 -5.70909 -2.46152 -2.14773 -0.745321 -5.2298 -0.468351 17.081 -9.25857 5.15785 -16.4162 0.171696 0.0462048 0.000530889 0.662642 
33.7577 101.282 -1.28052 -4.11968 -0.495704 -87.9459 1.21937 -2.27147 -5.49273 2.59214 18.346 13.9964 -7.48954 -15.2396 -0.427948 -1.33649e-009 8.75224e-006 -1.46515e-008 1.37802 10.0356 -0.895251 -0.0102228 -4.40932 -0.613915 35.7721 1.80194 0.272122 38.6956 -22.1451 5.75703 8.42813 39.6393 6.87388 -7.03196 9.61053 -0.117364 -44.9036 3.60487 -3.47983 -26.7971 -10.0444 5.61245 -1.85065 32.6781 -18.313 5.82328 9.61819 -0.917488 1.64229 -5.24868 -2.53179 -1.76517 -0.302966 -4.93337 -0.563944 17.0045 -9.39251 5.1579 -16.4552 0.172552 0.0462048 0.000530889 0.662642 
33.5325 101.304 -1.18904 -4.20789 -0.372011 -88.0752 1.37467 -1.93734 -4.67815 2.66128 18.0738 13.2956 -7.06389 -15.0306 -0.387414 -1.33649e-009 8.75224e-006 -1.46515e-008 1.04478 9.42793 -0.872328 0.486865 -4.01176 -0.701185 35.8947 1.80194 0.274039 37.9754 -23.3556 5.83197 8.72833 39.9581 6.12004 -7.17658 9.61051 -0.241112 -44.9906 3.61945 -3.49533 -27.0487 -9.38097 6.05839 -1.79557 32.2511 -18.5183 5.82328 9.61819 -0.917488 1.64969 -4.38214 -2.56867 -1.53757 0.064792 -4.60181 -0.764507 16.6726 -9.52922 5.1572 -16.3728 0.170807 0.0462048 0.000530889 0.662642 
33.3006 101.378 -1.06578 -4.25649 -0.40664 -88.1899 1.44434 -1.48909 -3.41823 2.66883 17.5258 12.2933 -6.71531 -14.9394 -0.359723 -1.33649e-009 8.75224e-006 -1.46515e-008 0.710027 8.90942 -0.891342 0.746597 -3.87455 -0.791363 35.8797 1.80194 0.274381 37.752 -24.8104 5.63639 8.82859 39.8585 5.61414 -7.09792 9.62606 -0.470235 -44.9011 3.61748 -3.50204 -27.1555 -9.71022 6.4552 -2.0866 32.6103 -18.0945 5.82328 9.61819 -0.917488 1.48233 -3.35864 -2.65186 -1.53559 0.476206 -4.45513 -0.940421 16.1881 -9.55005 5.19092 -16.174 0.165256 0.0462048 0.000530889 0.662642 
33.0797 101.485 -0.905629 -4.37383 -0.502508 -88.352 1.42942 -0.767369 -1.95207 2.67672 16.566 11.0136 -6.43184 -14.5731 -0.322346 -1.33649e-009 8.75224e-006 -1.46515e-008 0.635587 8.49092 -0.898698 0.623019 -3.73327 -0.794919 35.7586 1.80194 0.273928 37.8722 -25.9429 5.27265 8.72458 39.678 5.47563 -7.00891 9.63436 -0.557001 -44.9016 3.62089 -3.49934 -26.9135 -10.5983 6.65497 -2.49051 33.5774 -17.3754 5.82328 9.61819 -0.917488 1.24002 -2.4794 -2.71813 -1.70984 1.03293 -4.55718 -1.00097 15.5565 -9.31367 5.26161 -15.8958 0.159299 0.0462048 0.000530889 0.662642 
